<?xml version="1.0" encoding="utf-8"?>
<!-- Generator: Adobe Illustrator 24.1.1, SVG Export Plug-In . SVG Version: 6.00 Build 0)  -->
<svg version="1.1" id="Layer_1" xmlns="http://www.w3.org/2000/svg" xmlns:xlink="http://www.w3.org/1999/xlink" x="0px" y="0px"
	 height="1em" viewBox="0 0 512 512" style="enable-background:new 0 0 512 512;" xml:space="preserve">
<g>
	<style>svg{fill:#f1f2f4}</style><path d="M15,260l-1.7-0.8c-3.9-2.2-6.9-5.3-8.9-9.5c-3-5.5-4.3-10.7-4.3-16l0.4-2.8c0-4.3,1.1-8.1,3-11.8l1.8-3.2
		c0.8-1.7,2.1-3.2,3.2-4.7c1.3-1.5,1.5-3.4,1.1-5.2l-1.1-3.4c-1.3-4.3-2.1-8.5-2.1-12.8l-0.7-2.6c0-4.8,1.3-9.5,4.3-12.9l2.2-2.8
		c1.5-2.2,3.9-3.4,6.4-4.3c2.1-0.7,3.6-2.8,3.9-5.3l0.4-7.3c0-5.8,2.8-11.1,7-15l5.2-3.8c1-1,2.1-2.1,2.9-3.9l1.1-4.3
		c-0.4-2.1,0-2.8,1.1-3c3.4,1.3,5.6,0.9,7.1-0.8l2.8-3.6l7.7-8.6c2.2-2.1,3-6,1.7-8.9l-2.5-5.6l1.1-3.2c2.8,0,4.7,1,5.5,2.8l0.8,1.5
		c1.3,2.6,4.3,3.9,6.4,2.8c4.7-1.7,8.6-2.1,12.2-2.1h6.8c4.7,0,8.5-3.2,9.5-8.2C99.9,85,102,80.2,105,77c3.3-3.7,6.9-6.4,11.1-8.6
		c5.6-2.9,9-7.3,10.1-12.8c1.5-6.8,5.1-11.8,10-14.9l16.3-9.2l4.7-2.8c2.8-1.7,5.3-3.9,7.5-6.4l4.3-5.1c2.1-2.2,4.3-3.6,6.9-4.3
		c2.1-0.7,5.1-1.1,7.7-0.8l8.5,0.6c4.3,0,7.7,1.1,11.1,2.6l2.2,1.1c2.2,0.8,4.3,0.4,5.3-1.1l1.9-1.1l9.2-9.6c2.2-2.2,4.7-3,7.5-2.6
		c2.8,0.4,5.5,1.5,8.1,2.8c3.8,2.1,7,2.9,10.7,2.9h2.2c4.7,0,9.3,0.7,14.1,1.7l3.2,0.8c3.2,0.8,6.4-0.4,8.5-3l3-0.4l1.1,1.5
		c0.4,4.3,3,7.5,6.4,8.5l3.4,1.1c3.6,1.1,6.9,3.4,8.9,6.4c2.2,3.2,4.8,6.4,7.7,8.5l2.2,2.2c2.2,2.2,5.1,3,8.1,2.8h12.6
		c5.2,0,10.1,0.9,15,3c4.7,2.2,9.6,2.6,14,0.8c4.8-1.4,9.7-2.1,14.6-1.4l9.2,1.4c4.3,0.5,8.5,2.6,11.1,5.8l1.1,1
		c2.1,2.2,4.3,4.9,6.4,7.9c1.3,2.8,4.3,4.3,7.3,4.3h13.3c3.3,0,6.4,0.7,9,2.2c2.8,2.1,5.1,4.3,7.3,6.4l2.1,2.8c2.6,3,3.8,7,3.7,11.4
		c0,3.4,2.6,6.4,5.9,6.4l4.3,0.5c3,0,5.5,2.1,7,4.8l2.2,4.3l5.5,12.4c0.9,2.2,1.1,4.3,0.9,6c0,2.1,0.6,3.8,2.1,4.7l2.2,1.5
		c2.8,2.2,4.3,5.3,3.9,9l-1.5,10l-0.4,4.3c-0.4,2.2,0.6,4.9,2.6,6.4c3.2,2.1,4.7,4.9,4.8,8.1v4.3c0,2.2-0.4,4.8-2.1,6.4
		c-1.3,1.8-2.2,3.9-2.2,6.4l0.7,4.9c0,3.4,2.1,6.4,4.3,8.5c3,2.2,4.7,5.6,5.2,9c0.8,5.3,1,9.6,1,13.9v4.9c0,1.7,0,3.4,0.7,5.1
		c0.4,1.5,1.5,3,2.8,3.9l4.3,3.2c4.3,2.8,7.3,6.4,9,11.4c2.2,4.7,2.8,9.6,2.8,14.5v1.7c0,3.9-0.4,7.9-1.7,11.5
		c-1.1,3.9-0.8,7.5,0.6,10.7c1.7,3,2.8,6.4,3.2,10.1c0.8,4.3,0.4,8.5-1.1,11.9l-0.4,1.5c-1.1,2.6-2.8,4.9-4.9,6.9
		c-2.2,2.2-4.3,3.4-5.5,4.9c-1.3,1.3-2.2,3.4-1.5,5.3l0.6,3c1.1,4.3,1.1,8.5,0,12.4v1.8c-0.8,3.2-2.1,5.9-3.4,8.5
		c-1.5,2.8-3.6,4.9-6.4,6.4l-3.3,2.1c-1.5,0.9-2.6,2.8-2.6,4.8c0,2.1-0.8,4.3-2.1,5.5l-3.3,4.3c-2.1,2.8-4.8,5.1-7.9,6.4
		c-3,2.2-5.6,4.3-7.5,6.4c-2.2,2.6-3.8,5.6-4.7,8.6c-0.8,3.9-3.8,5.9-7.1,5.9H439c-3,0-5.8,2.2-7,4.8c-1.5,3.3-3,5.8-4.9,7.9
		c-2.2,2.2-3.4,4.8-4.3,7.7c-0.4,2.6-2.5,4.3-4.7,3.4c-2.8-1.3-5.5,0-6.8,2.2c-2.5,4.3-5.1,7.5-7.9,10.3l-1.5,1.3
		c-2.8,2.2-6.4,3.9-9.7,3.9c-3.9,0-5.8,1.7-6.4,4.3c-0.7,2.2-1.1,4.9-1.3,7.3c-0.4,2.5-1.3,4.8-2.1,7l-1.1,1.3
		c-2.2,3.3-3.8,6.4-6,9.2l-0.8,1.3c-2.8,3.6-6.4,6.4-10.7,7.4c-5.2,1.7-9.6,2.2-14.1,2.2h-3c-2.1,0-4.3,1.3-5.8,3.4l-1.2,2.2
		l-1.3,2.5l-2.8,4.8c-2.2,3.8-5.3,6.4-9.6,7.7c-4.3,1.1-9.2,1.5-13.7,1.3l-3.4-0.4c-3,0-5.8-0.8-8.5-2.2c-2.2-0.8-5.2,0-6.4,2.2
		c-2.2,3-4.8,4.7-7.5,5.6l-6.4,2.1c-4.3,1.1-8.9,1.1-13.5,0l-3.4-1.1c-2.1,0-4.3-1-6-2.1c-2.1-1.1-4.3-1.5-6.4-1.3l-2.8,0.5
		c-4.3,0.4-8.1,0-11.9-1.1l-5.8-1.3c-2.6-0.8-4.9-2.5-6.4-4.9c-1.1-2.1-3.4-3.8-6.4-4.3h-6.8c-4.3-0.6-8.1-2.1-10.7-5.3l-8.5-8.1
		l-3-2.6l-4.7-3.4l-2.8-2.1c-3.3-2.2-7.1-3.8-11.2-4.3l-12.8-2.2l-3.4-0.7l-4.9-1.1c-2.2-0.4-4.3-2.1-5.8-4.3
		c-1.3-2.1-3.7-3-5.8-2.1c-4.3,1.7-7.7,2.1-11.1,2.8h-3c-5.6,0.4-10.7-0.4-15.9-2.8c-5.1-2.2-8.5-5.3-11.7-9.5
		c-2.6-3.7-6.4-6.4-11.2-7.3l-5.9-1.3c-4.3-0.9-8.6-2.6-12.4-5.2c-4.3-3-6.4-5.8-8.1-9.2c-1.7-3.2-2.8-6.9-3-10.7V413
		c-0.4-4.3-3.4-8.2-7.4-9.2c-4.9-1.5-8.6-3.7-11.8-6.4c-3-2.8-4.8-6.8-4.8-11.1l0.5-9.4c0-3.7-1.1-6.9-3.7-9.2
		c-2.6-2.6-4.3-5.8-4.3-9.2l-0.7-7.7c-0.4-5.6-1.5-11.1-2.8-16.7c-1.3-4.9,0.7-9.9,4.7-12.2l1.5-1.1c2.2-1.5,3-4.3,1.7-6.9l-1.7-2.1
		c-2.1-2.2-4.3-3.7-6.4-4.3c-1.7-0.5-2.1-2.2-2.1-3.2l2.1-2.6c1.3-1.5,1.1-3.9,0-5.1c-1.7-1.8-2.5-3.9-2.8-6l-0.4-14.9
		c0-3,0.4-6,1.3-8.9c0.9-2.6,0-5.6-2.5-6.8L15,260z M226.7,231.8c1.5-1.5,1.2-4.3,0-5.3c-2.2-1.7-3.7-3.6-4.9-5.8l-2.2-3.4
		c-1.4-2.8-3.3-5.1-5.5-7.3l-0.4-0.4c-2.2-1.7-3.7-3.8-4.9-6.4c-1.1-2.1-1.1-4.3,0-6.4l1.3-2.1c1.3-2.2,2.2-5.2,2.2-7.7v-0.9
		c0-2.1-0.8-4.3-2.2-6.4c-0.8-1.8-1.7-3.9-2.1-6v-1.3c-0.7-2.6,0-5.3,1.7-7.5c1.8-2.8,3-5.3,3.7-8.5v-0.5c0.8-2.1,0.4-4.8-0.9-7
		c-1.3-2.2-1.7-4.3-0.8-6.8l1.5-4.3c1.2-3.8,3.2-7.3,5.8-10.3l3-3.2l2.2-2.6l1.3-1.3c1.3-1.3,1.5-3.4,0.4-5.2
		c-1.1-2.2-1.7-4.3-1.2-6.4l0.4-3c0.7-4.3,2.2-8.5,4.9-11.9l0.8-0.8c3.2-4.3,7.3-7.1,11.9-8.6l5.8-2.1c2.5-0.8,4.3-3.7,4.3-6.4
		c0-3.4,1.1-6.4,3-9.2l1-1.1c2.2-3.6,4.8-7.3,6.4-11.1l1.5-2.8l0.7-2.2c0-3.6-2.2-6.8-5.6-7l-9.3-0.7c-5.3-0.4-10.7,0-15.9,0
		l-18.1,2.2c-2.8,0-4.9,2.1-5.2,5.1c0,3-2.2,5.6-4.7,6.4l-7.7,2.1l-2.2,0.7l-6.4,2.2c-4.7,1.5-8.5,4.9-10.7,9.6l-1.7,2.8
		c-2.2,4.8-5.8,8.6-10.3,11.4c-4.3,2.8-6.4,7.3-6.8,12.4v2.2c-0.4,4.3-1.7,8.5-4.3,11.5l-1.1,1.7c-1.7,2.1-2.2,4.9-1.1,7.3
		c1.1,2.5,1.7,5.3,1.5,8.1v11.4c0,3-2.2,5.5-4.3,6.4c-3,1.1-4.9,3.4-5.8,6.4l-1.1,4.3c-0.8,4.3,0.7,8.6,4.3,11.2
		c3.4,2.5,5.6,6.4,6.4,11.1v3.9c0.7,4.3,3,8.5,6.8,10.7c3.9,2.6,6.9,6.4,8.5,10.7l1.1,3.4c1.7,4.7,5.6,7.4,9.9,7.9h1.2
		c3.9,0,7.3,2.2,9.5,5.6c2.1,3.4,5.5,5.8,9.3,6.4l6,1.7c3.7,1.1,7.1,3,9.9,5.8l0.4,0.5c2.2,1.7,5.6,1.4,7.5-0.9l1.5-1.7L226.7,231.8
		z M251.1,212.2c2.1,1.3,4.3,0.6,5.1-1.3l0.7-1c1.5-3,3.4-6,5.5-8.6l4.3-6.4l1-0.8l5.2-6.8c2.2-2.1,4.7-3.6,7.7-3.6
		c2.8,0,5.2-1.5,6.4-4.3c0.8-3,2.1-5.8,4.7-8.2l1.1-1.3c2.2-2.2,4.3-3.3,6.4-4.3c2.8-0.4,5.3-0.9,7.9-0.9h6.4c2.6,0,4.8-1,6-3.2
		c1.3-2.2,3.2-3.6,5.3-4.7l2.2-0.9c3.4-1.4,7.3-2.5,11.1-2.9l4.3-0.4c2.6,0,5.3,0,7.9,1.4c2.1,1.5,4.9,1.3,7-0.4l1.5-0.8
		c3.2-2.2,6.9-3.9,10.7-4.3h0.4c4.3-0.8,8.1-0.8,12.5-0.7h2.1c4.3,0.7,7.9,2.2,10.7,5.3l0.7,0.8c2.2,2.2,5.5,3.9,8.5,3.9h3.7
		l2.8-1.5l2.8-1.3h2.2c3,0,5.8,0.8,8.5,1.7l3.7,1.5c3.4,1,7,2.1,10.7,2.5h2.6c1.7,0,2.8-1,2.8-2.5c0-2.2-0.4-4.3-1.5-6l-1.5-3.4
		c-1.7-2.8-3-5.8-4.3-8.5l-0.4-1.1c-1.1-2.2-1.1-4.3,0-6.4v-1.1c0.4-1.7-0.4-3.6-2.2-4.3h-1.7c-3.4-1.1-6.4-3-8.6-5.8l-2.1-2.2
		c-2.2-2.1-3.4-5.3-4.3-8.5c-1-2.8-3.3-4.9-6.4-4.9h-9c-3.2-0.4-6-2.2-7.9-4.7l-0.8-1.1c-1.5-2.2-2.8-4.7-3.6-7.3
		c-1.1-2.2-3.4-3.4-5.6-2.8l-2.6,0.8c-4.3,1.5-8.5,2.1-12.8,1.7l-3.4-0.4c-3.7,0-7.1-1.5-9.9-3.6l-2.2-1.5c-1.7-1.3-3.3-2.2-5.3-3
		c-2.1-0.8-3.8-0.4-5.1,1.1l-1.1,1.3c-2.1,2.2-5.1,3.9-8.1,4.3l-11.5,0.7c-2.2,0-4.3,1.1-5.8,2.6c-1.7,1.5-3.7,2.5-5.9,2.9H310
		c-2.1,0-4.3,1.5-6.4,3v0.4c-2.2,2.2-4.9,3.2-7.8,3.2l-0.8,0.4c-2.6,0-5.1,0-7.7,0.7h-2.6c-3.6,0.6-6.4,3.6-7.3,7.4l-0.8,4.9
		c-0.7,3.4-2.2,6.4-4.3,9.2c-2.2,2.6-4.8,4.3-7.9,4.3h-3.6c-2.2,0.5-4.3,2.8-3.9,5.3c0.5,3.7,0,6.8-0.6,10.1l-0.8,3.6
		c-0.9,3.3-3,5.8-5.8,6.8l-1.3,0.7h-0.4c-1.3,0.8-2.2,2.8-1.1,4.3c1.3,2.2,1.8,4.3,1.5,6.4l-0.7,6.9c0,2.5-1,4.9-2.1,7
		c-1.3,2.2-1.3,4.3-0.4,6.4l2.1,4.7c1.1,2.2,1.3,4.3,0.7,6.9c-0.7,2.2-1.1,4.3-0.8,6.4c0,2.2,1.3,4.3,3,5.2L251.1,212.2z
		 M419.9,366.8c2.2,2.1,5.3,2.9,7.9,1.2l4.3-2.8c2.2-1.5,3.8-3.7,4.7-6.4v-0.4l2.2-6.4l1.3-2.2l0.9-2.1l0.8-1.5
		c0.8-1.7,2.1-3,4.3-3.7l0.8-0.4c1.8-0.4,2.8-2.1,2.8-3.9c0-2.1,1-3.8,2.1-5.3l1.7-1.5l4.3-5.5v-0.4c1.3-1.7,2.1-3.7,2.6-5.8
		c0.4-2.1,0-4.3-0.9-6.4l-0.4-0.9c-0.8-2.1-1.3-3.6-1.5-5.5l-0.6-6l-0.7-6.4c0-2.1,0.8-4.3,2.2-6.4c1.4-1.7,2.5-3.9,3.4-6v-0.8
		l0.4-0.4c0.4-2.2-0.7-4.3-2.6-4.3c-2.2-1-4.3-2.8-4.9-5.3l-0.7-1.2c-1-3.9-1.7-7.7-1.7-11.5l0.4-10.7V247c0-3.6-3-6.4-6.4-6.4h-0.4
		c-4.3,0-7.7-1.3-10.7-4.3l-1.7-2.2l-4.3-4.8l-5.5-6.4c-2.2-3-4.3-5.6-7.1-8.2c-2.1-2.1-5.3-4.3-8.5-4.7l-4.3-0.7
		c-2.2-0.4-4.9-1.4-7.3-2.9c-1.7-1.3-4.3-0.9-6,0.8l-2.8,3l-1.3,0.8c-1.5,0.4-2.9-0.4-3.6-2.2c-0.8-2.5-0.8-5.5,0.4-8.1v-1.3
		c0-1.5-1.2-2.6-2.6-2.2h-3.4c-3.8,0-7.7-0.4-11.3-2.1l-2.2-0.9c-2.2-1.1-4.7-1.7-7-1.7c-2.2,0-4.3,0.4-6.4,1.7l-0.8,0.7
		c-2.6,1.7-5.6,2.6-8.6,2.8h-7c-3.3,0-6.4,1.1-8.6,2.8c-2.8,1.7-5.8,2.8-8.9,3.3l-5.8,0.9c-2.6,0.6-5.3,1.7-7.8,3.6
		c-2.1,2.2-5.1,3.4-7.9,4.3l-1.1,0.5c-3.4,1-6.4,3.2-8.5,6.4l-2.6,2.6c-1.5,2.2-1.5,4.7,0,6.8c1.2,2.2,3.8,2.8,6.4,2.2l3.2-1.3
		c1.7-0.6,3.7,0,5.1,0.8c1.3,1.1,3.2,1.8,5.2,1.5l5.3-0.6c3,0,6,0,8.9,0.8c3.3,1.1,6,2.2,8.6,4.3c2.6,2.2,5.3,3,8.5,3.4
		c3.3,0.4,6.4,1.1,9.4,2.2l2.1,0.4c2.2,0.7,3.9,2.1,5.2,4.3c1.1,1.8,2.1,4.3,2.1,6.4v0.7c0,2.5,2.2,4.3,4.3,4.3h1.3
		c3.4,0,7.1,0.4,10.7,1.5l1.5,0.6c2.2,0.9,4.3,2.2,5.8,4.3c1.7,2.1,2.8,4.3,3.4,6.4l0.7,3c0.6,3.2,0.8,6.4,0.8,9.9v1.1
		c0,2.1,1.5,4.3,3.8,5.1c2.2,0.4,4.7,1.3,7.1,2.6l1,0.4c2.8,1.7,5.6,3.8,7.7,6.4l1.1,1.5c2.8,3.2,4.3,7.3,4.3,11.3v1.5
		c0,3.2-0.6,6.4-1.7,9.4c-0.8,2.6,0,5.6,2.8,6.4l1.5,1.1c3.3,1.3,6,3.6,8.1,6.4c2.2,3.3,3,6.9,3,10.7v6.4c-0.4,2.2-1,3.8-2.1,5.3
		c-1.1,1.5-1.1,3.7,0,5.2l1.3,2.1L419.9,366.8z M283.1,257.3h-0.4l-1.1,2.2l0.8,4.3c0.8,3.4,1.2,6.9,1.7,10.3
		c0.4,3.4,2.1,6.4,4.7,8.5h0.8c3.3,2.6,5.2,6.4,5.3,10.3v10.7c-0.4,2.1,0,4.3,1.3,6l1,1c2.2,2.6,3,5.6,3.3,8.6l0.6,11.8
		c0,2.8-1.7,5.1-4.3,5.5l-2.1,0.4c-1.5,0-2.2,1.7-2.2,3.3c0,1.7,0.7,3.6,1.3,5.3v0.4c0.7,2.1,0.9,4.3,0.7,6.4l-0.8,5.8
		c-0.8,4.3-2.2,8.1-4.3,11.9l-1.5,2.6c-1.1,2.1-2.6,3.4-4.3,4.3c-2.1,0.8-3.6,2.6-4.3,4.7l-1.7,7.7c-1.1,4.3-3,8.6-5.6,12.9h-0.4
		c-2.6,3.4-5.8,6.4-9.6,8.5l-2.6,1.7l-6.4,3.2c-2.1,0.9-3.4,2.8-3.9,5.2l-1,7c-0.7,4.3-2.2,7.9-5.2,10.7l-2.8,3.3l-3.2,3.2l-3.2,3.4
		c-2.6,3-6.4,4.3-10.7,3.7l-7.7-1.5l-7.1-0.9h-1.9l-0.4,3.4c1.5,2.6,3.8,4.3,6.4,4.3l4.7,0.8c2.2,0,4.8,1.1,6.9,2.1
		c2.2,1.5,4.3,2.6,6.8,3.3h0.4c2.8,1.1,5.8,1.3,8.6,1.1l3.2-0.5c3.7-0.4,7.1,0,10,1.3l2.6,0.8l3.9-1.1c1.3-1.3,2.6-2.1,4.3-2.8
		l1.7-0.4c2.8-0.8,5.5-1.3,8.5-1.3h1.8c2.5,0,4.9,0.5,7,1.8l0.8,0.4c1.5,0.7,3.3,0,4.3-1.3c0.6-1.5,2.1-3,3.6-4.3l5.3-3.7l3.4-2.2
		l1.7-1c2.1-1.5,5.1-2.2,7.7-2.2l7.7-0.7c3-0.4,5.6-2.5,6.4-5.5c0.8-3.3,2.1-6.4,4.3-9.2c2.2-2.8,4.3-5.2,6.4-7.3
		c2.8-2.2,5.5-3.3,8.5-3.4h1.7c3.4-0.7,5.9-3.8,5.8-7.3v-14.4c0.4-2.1,1.2-4.9,2.5-7l4.3-6.4l1.7-2.2c1.3-1.1,2.2-2.5,3.7-4.3
		l2.1-2.8c1.3-2.2,1.3-4.9-0.4-6.9c-2.1-2.2-3.2-5.2-3.6-8.1V362c-0.4-3.4-0.4-7,0.6-10.7v-1c1.1-2.8,2.6-5.6,4.3-8.2
		c1.7-2.1,1.4-5.1-0.7-6.9l-3.7-3.2c-3-2.6-4.7-6.4-5.1-10.3l-0.4-4.3c0-1.3,0-2.8-0.4-4.3l-0.4-3.3c-0.5-3.6-2.6-6.4-5.6-8.5
		l-1.5-0.4c-2.2-1.3-4.3-3.3-6-5.8c-1.7-2.2-2.5-5.2-3.2-8.2l-0.7-3.6l-2.1-2.8l-10.3-3.2c-2.2-0.4-4.3-2.1-5.8-3.6h-0.4
		c-1.3-1.7-3.4-1.7-4.8-0.5l-2.1,2.2l-1.5,0.7l-1.7-2.2c0.4-3.4-0.8-6.8-3.6-8.9l-2.8-2.2l-6.4-4.3c-1.7-0.7-4.3,0-5.2,2.1l-0.8,1.3
		l-0.8,0.8l-2.2-1.1l-0.7-1.1l-3.4-2.5L283.1,257.3z M257.5,278.7l-1.1-1.1l-3.3,0.4c-1.5,2.6-2.8,5.3-3.4,8.2v0.4
		c-0.6,2.8-3.2,4.7-5.8,4.3h-2.5c-3,0-5.3,2.6-5.3,5.5c0,3.8-1.3,7.8-3.7,10.7l-1.3,1.3c-2.2,2.8-5.3,4.7-8.6,5.8l-1.7,0.4
		c-2.2,0.7-3.8,2.2-4.3,4.7c0,2.2-1.3,4.3-3,6l-2.2,1.7c-2.6,2.8-6.4,4.3-10.3,4.8l-10.7,1.1c-3.4,0-6.4,2.1-8.5,5.3
		c-2.2,3.2-5.3,5.3-8.5,5.8l-4.8,0.4c-3.4,0.4-7,0.4-10.7-0.4l-2.1-0.4l-5.9-1.5c-2.1-0.7-3.8,0-5.1,1.5l-2.2,2.8
		c-2.8,3.2-6.8,4.7-10.7,4.3l-13.9-1.7c-2.2,0-3.8-1.1-5.8-2.2c-2.2-1.2-3.7-2.8-5.2-4.3L102,336l-2.8-0.4l-3,1.3l-11.9,3
		c-2.2,0.7-4.9,0-7-1.3c-2.2-1.7-4.8-2.2-7.3-2.2h-2.8c-2.6,0.7-4.3,3.4-3.4,6l0.8,4.3c0.7,2.2,0.5,4.7-0.6,6.9
		c-1.1,2.2-0.8,4.3,0.6,6.4l1.3,1.7c1.7,2.6,4.3,4.8,6.4,6.9c2.1,2.2,4.3,4.3,5.9,7.1l3.3,5.8c1.7,3,4.3,4.7,7.7,4.7
		c3.2,0,6.4,1.1,8.9,3.2l6.4,6c1.7,1.5,4.3,1.7,6,0.4l1.1-0.4l2.1,2.2v1.1c0,2.8,2.2,5.3,4.9,6.4l9.6,2.2c3.4,1.1,6.8,2.2,10.1,4.3
		h1.7c1.7,0,3.3-1.5,3-3.4v-7.4c0-2.2,0.8-4.3,2.6-5.2l1.1-0.4l1.7,2.2v3.6c0,2.8,0.8,5.3,2.8,7.3c2.2,2.2,4.9,2.6,7.3,1.8
		c2.6-1.1,5.2-1.3,7.9-1.1l7.9,0.4c3.8,0.4,7.4,0,10.7-1.5c3.8-1.3,7-3,10-5.3l1.2-0.8l6.4-5.8c2.2-2.2,4.9-3.2,7.5-3.2h8.5
		c4.3-0.4,8.2-4.3,8.6-8.5l0.8-4.3c0-2.8,1.3-5.3,3.2-7.5c2.2-2.2,4.3-3.4,6.4-4.3l2.6-1.1c3.6-1.5,6.4-4.7,7.7-8.5l1.3-5.2
		c1.1-4.3,3.3-8.5,6.4-11.3l0.4-0.5c2.6-2.1,3-6.4,1.3-9.3l-0.7-1.5c-1.5-2.2-1.8-5.3-0.7-8.1c1.1-3,2.2-5.6,3.8-8.2l2.2-3
		c0.8-1.7,0.8-4.3-0.4-5.8c-1.3-1.7-2.2-3.8-2.2-5.9l-0.4-3v-7.3c0.4-2.2,0-4.9-0.7-7.1l-0.8-2.5L257.5,278.7z M226.9,262.4v-0.6
		c0-2.2-1.3-3.4-3-3.4h-5.6c-2.1,0.4-4.3,0.4-6,0h-9.6c-4.9,0-9.6-0.9-14.3-2.2l-5.2-1.3l-4.3-1.3l-9.6-3.2c-5.2-1.5-9-4.9-11.4-9.6
		l-1.1-2.2c-1.5-3.2-4.7-4.9-7.9-4.3c-3.7,0-7.3,0-10.7-1.7l-2.6-1.1c-4.9-2.2-8.5-6.4-8.5-12.2l-0.9-5.8c-0.6-3-2.5-5.8-5.1-6.8
		c-3-1.3-5.8-3-8.6-4.9l-1-0.7c-3.2-2.6-6-5.9-7.5-10l-0.4-1.3c-1.1-3.4-1.3-7.1-0.4-10.7l0.4-1.3c0.8-2.8,1.1-5.5,1.1-8.5
		c0-2.6-1.1-5.2-3-7.1l-3-2.8c-3.4-2.8-5.5-6.8-5.8-11.4c-0.4-4.7-0.4-9.2,0.4-13.7v-1.2c0-2.6-2.2-4.3-4.3-4.3h-0.7
		c-2.8,0-5.1,1.7-6.4,4.3c-1,3-2.8,5.3-4.7,7.7l-0.8,1.1l-6.4,6.4c-2.2,2.1-3.4,5.3-3.9,8.5c-0.4,3.2-1.2,6.4-2.6,9.4l-0.4,1.1
		c-1.1,2.5-2.8,4.9-4.9,6.4c-2.1,1.7-3.6,4.3-3.6,6.8l-0.4,9.9c0,4.3-0.7,8.6-2.2,12.9l-0.4,1.7c-1.1,2.8,0,5.8,2.6,7.1l8.9,3.9
		l0.8,0.4l1.1,1.1l-0.7,2.1l-2.1,1.1c-1.3,0.4-2.2,1.7-2.6,3.2l-0.4,2.1v0.4l-2.2,12c-0.4,1.7-0.4,3.6-0.4,5.5
		c0,1.8,1.1,3.3,2.6,3.9l4.7,2.2c2.2,1.3,4.8,2.8,6.4,4.3l2.2,1.7l2.5,2.1l0.9,0.8c1.5,1.3,2.5,3,3,4.9l2.1,9.6
		c0,2.6,2.2,4.8,4.3,5.3l3.4,1.1l1.1,0.4l4.3,1.3c3.4,1.1,6.4,3,9,5.5c2.6,2.2,5.1,4.9,7.3,7.9l0.8,0.8c1.7,2.2,4.3,3.3,6.8,2.6
		c2.6-0.7,5.3-0.8,8.1-0.8h3.3c2.1,0,4.9,0.6,7.3,2.1c2.1,1.3,4.9,2.2,7.4,3.3h0.7c2.6,1.1,5.3,0.6,7.5-0.8c2.1-1.8,4.9-2.6,7.7-2.6
		l10,0.6c2.2,0,4.3-0.4,5.3-2.1h0.4l3.7-3.4l1.1-1.1c1.7-2.1,4.3-3,6.8-3.2h9.7c2.5,0,4.9-2.2,5.9-4.3c1.1-2.2,3.3-3.9,5.8-4.3
		l4.3-0.8c1.7,0,3.2-1.5,3.9-3.4c0.6-2.1,1.7-3.9,3.2-5.1l3.4-3.4c2.2-2.2,3.2-4.3,3.7-6.8L226.9,262.4z"/>
</g>
</svg>
