<svg xmlns="http://www.w3.org/2000/svg" xmlns:xlink="http://www.w3.org/1999/xlink" version="1.1" x="0px" y="0px" height="1.5em" viewBox="0 0 100 125" enable-background="new 0 0 100 100" xml:space="preserve"><g><rect x="55.6" y="27.5" width="5.6" height="5.6"/><rect x="61.2" y="21.9" width="5.6" height="5.6"/><rect x="66.9" y="16.2" width="5.6" height="5.6"/><rect x="72.5" y="10.6" width="5.6" height="5.6"/><polygon points="89.4,5 83.8,5 78.1,5 78.1,10.6 83.8,10.6 89.4,10.6 89.4,16.2 89.4,21.9 95,21.9 95,16.2 95,10.6 95,5  "/><rect x="66.9" y="38.8" width="5.6" height="5.6"/><rect x="72.5" y="33.1" width="5.6" height="5.6"/><rect x="78.1" y="27.5" width="5.6" height="5.6"/><rect x="83.8" y="21.9" width="5.6" height="5.6"/><polygon points="38.8,61.2 38.8,66.9 44.4,66.9 50,66.9 50,61.2 44.4,61.2  "/><rect x="50" y="55.6" width="5.6" height="5.6"/><rect x="55.6" y="50" width="5.6" height="5.6"/><rect x="61.2" y="44.4" width="5.6" height="5.6"/><rect x="38.8" y="44.4" width="5.6" height="5.6"/><rect x="44.4" y="38.8" width="5.6" height="5.6"/><rect x="50" y="33.1" width="5.6" height="5.6"/><style>svg{fill:#f1f2f4}</style><path d="M33.1,66.9v-5.6h-5.6v5.6h-5.6v5.6h-5.6v5.6v0h-5.6H5v5.6v5.6V95h5.6h5.6h5.6v-5.6v-5.6v0h5.6v-5.6h5.6v-5.6v0h5.6v-5.6   H33.1z M16.2,83.8v5.6h-5.6v-5.6L16.2,83.8L16.2,83.8z"/><polygon points="27.5,50.4 33.1,50.4 33.1,55.6 33.1,61.2 38.8,61.2 38.8,55.6 38.8,50 33.1,50 33.1,44.7 27.5,44.7 27.5,50    21.9,50 21.9,44.7 27.5,44.7 27.5,39.1 21.9,39.1 16.2,39.1 16.2,44.7 16.2,50.4 21.9,50.4 21.9,55.6 21.9,61.2 27.5,61.2    27.5,55.6  "/><polygon points="50,78.1 50,83.7 55.6,83.7 61.2,83.7 61.2,78.1 61.2,72.5 55.6,72.5 55.6,78.1  "/><polygon points="44.4,72.5 38.8,72.5 38.8,78.1 44.4,78.1 50,78.1 50,72.5  "/><rect x="50" y="66.9" width="5.6" height="5.6"/></g></svg>