<svg xmlns="http://www.w3.org/2000/svg" xmlns:xlink="http://www.w3.org/1999/xlink" version="1.1" x="0px" y="0px" height="1.3em" viewBox="0 0 457.7 591.375" style="enable-background:new 0 0 457.7 473.1;" xml:space="preserve"><style>svg{fill:#f1f2f4}</style><path d="M39.5,404.1c7.2,0,13-5.8,13-13s-5.8-13-13-13s-13,5.8-13,13S32.3,404.1,39.5,404.1z"/><path d="M69.6,404.1c7.2,0,13-5.8,13-13s-5.8-13-13-13s-13,5.8-13,13S62.4,404.1,69.6,404.1z"/><path d="M423.3,239.9V0H127.1L40.6,86.5v222.4L0,349.5v123.6h348.2l109.6-109.6V239.9H423.3z M131.2,10h273.2l-73.5,73.5H57.7  L131.2,10z M50.6,93.5h277.3v231.8H50.6V93.5z M341.1,463.1H10V356.5h331.1V463.1z M344,346.5H17.1L40.6,323v12.3H335l85.4-85.4  h20.2L344,346.5z"/><rect x="81.4" y="118.1" width="215.2" height="182.7"/><rect x="207.1" y="386.1" width="114.5" height="10"/></svg>